<mxfile host="app.diagrams.net" modified="2021-10-12T10:54:12.646Z" agent="5.0 (Windows NT 10.0; Win64; x64) AppleWebKit/537.36 (KHTML, like Gecko) Chrome/93.0.4577.82 Safari/537.36" etag="sx_riiD1MkGwODKKdkvN" version="14.8.0" type="github">
  <diagram id="CoO6FPreTEZt4PXSig7y" name="第 1 页">
    <mxGraphModel dx="1955" dy="896" grid="1" gridSize="10" guides="1" tooltips="1" connect="1" arrows="1" fold="1" page="1" pageScale="1" pageWidth="1920" pageHeight="1200" math="0" shadow="0">
      <root>
        <mxCell id="0" />
        <mxCell id="1" parent="0" />
        <mxCell id="UTCIlsExL89RcQO2asN3-1" value="" style="rounded=1;whiteSpace=wrap;html=1;sketch=1;dashed=1;fillColor=#f5f5f5;strokeColor=#666666;fontColor=#333333;" vertex="1" parent="1">
          <mxGeometry x="170" y="200" width="340" height="210" as="geometry" />
        </mxCell>
        <mxCell id="UTCIlsExL89RcQO2asN3-3" value="&lt;div class=&quot;lake-content&quot; style=&quot;font-size: 18px;&quot;&gt;&lt;span class=&quot;ne-text&quot; style=&quot;font-size: 18px;&quot;&gt;移除临时变量&lt;/span&gt;&lt;/div&gt;" style="text;whiteSpace=wrap;html=1;fontFamily=Comic Sans MS;fontSize=18;" vertex="1" parent="1">
          <mxGeometry x="280" y="200" width="130" height="30" as="geometry" />
        </mxCell>
        <mxCell id="UTCIlsExL89RcQO2asN3-4" value="查询取代临时变量" style="rounded=1;whiteSpace=wrap;html=1;sketch=1;fontFamily=Comic Sans MS;fontSize=16;fillColor=#f8cecc;strokeColor=#b85450;" vertex="1" parent="1">
          <mxGeometry x="225" y="250" width="210" height="50" as="geometry" />
        </mxCell>
        <mxCell id="UTCIlsExL89RcQO2asN3-5" value="内联变量" style="rounded=1;whiteSpace=wrap;html=1;sketch=1;fontFamily=Comic Sans MS;fontSize=16;fillColor=#d5e8d4;strokeColor=#82b366;" vertex="1" parent="1">
          <mxGeometry x="225" y="330" width="210" height="50" as="geometry" />
        </mxCell>
        <mxCell id="UTCIlsExL89RcQO2asN3-10" value="" style="shape=flexArrow;endArrow=classic;html=1;fontFamily=Comic Sans MS;fontSize=18;startSize=10;endSize=10;sourcePerimeterSpacing=20;targetPerimeterSpacing=20;strokeWidth=0.5;width=28;fillColor=#bac8d3;strokeColor=#23445d;" edge="1" parent="1">
          <mxGeometry width="50" height="50" relative="1" as="geometry">
            <mxPoint x="329.5" y="420" as="sourcePoint" />
            <mxPoint x="329.5" y="510" as="targetPoint" />
          </mxGeometry>
        </mxCell>
        <mxCell id="UTCIlsExL89RcQO2asN3-12" value="提炼函数" style="rounded=1;whiteSpace=wrap;html=1;sketch=1;fontFamily=Comic Sans MS;fontSize=16;fillColor=#d5e8d4;strokeColor=#82b366;" vertex="1" parent="1">
          <mxGeometry x="225" y="520" width="210" height="50" as="geometry" />
        </mxCell>
        <mxCell id="UTCIlsExL89RcQO2asN3-13" value="" style="rounded=1;whiteSpace=wrap;html=1;sketch=1;dashed=1;fillColor=#f5f5f5;strokeColor=#666666;fontColor=#333333;" vertex="1" parent="1">
          <mxGeometry x="600" y="200" width="340" height="430" as="geometry" />
        </mxCell>
        <mxCell id="UTCIlsExL89RcQO2asN3-14" value="&lt;div class=&quot;lake-content&quot; style=&quot;font-size: 18px&quot;&gt;&lt;span class=&quot;ne-text&quot; style=&quot;font-size: 18px&quot;&gt;移除循环累加变量&lt;/span&gt;&lt;/div&gt;" style="text;whiteSpace=wrap;html=1;fontFamily=Comic Sans MS;fontSize=18;" vertex="1" parent="1">
          <mxGeometry x="687.5" y="200" width="165" height="30" as="geometry" />
        </mxCell>
        <mxCell id="UTCIlsExL89RcQO2asN3-15" value="拆分循环" style="rounded=1;whiteSpace=wrap;html=1;sketch=1;fontFamily=Comic Sans MS;fontSize=16;fillColor=#f8cecc;strokeColor=#b85450;" vertex="1" parent="1">
          <mxGeometry x="665" y="250" width="210" height="50" as="geometry" />
        </mxCell>
        <mxCell id="UTCIlsExL89RcQO2asN3-17" value="移动语句" style="rounded=1;whiteSpace=wrap;html=1;sketch=1;fontFamily=Comic Sans MS;fontSize=16;fillColor=#f8cecc;strokeColor=#b85450;" vertex="1" parent="1">
          <mxGeometry x="665" y="340" width="210" height="50" as="geometry" />
        </mxCell>
        <mxCell id="UTCIlsExL89RcQO2asN3-26" value="" style="edgeStyle=orthogonalEdgeStyle;rounded=0;sketch=1;orthogonalLoop=1;jettySize=auto;html=1;fontFamily=Comic Sans MS;fontSize=18;startSize=10;endSize=10;sourcePerimeterSpacing=20;targetPerimeterSpacing=20;strokeWidth=0.5;" edge="1" parent="1" source="UTCIlsExL89RcQO2asN3-18" target="UTCIlsExL89RcQO2asN3-17">
          <mxGeometry relative="1" as="geometry" />
        </mxCell>
        <mxCell id="UTCIlsExL89RcQO2asN3-18" value="提炼函数" style="rounded=1;whiteSpace=wrap;html=1;sketch=1;fontFamily=Comic Sans MS;fontSize=16;fillColor=#f8cecc;strokeColor=#b85450;" vertex="1" parent="1">
          <mxGeometry x="665" y="430" width="210" height="50" as="geometry" />
        </mxCell>
        <mxCell id="UTCIlsExL89RcQO2asN3-19" value="内联变量" style="rounded=1;whiteSpace=wrap;html=1;sketch=1;fontFamily=Comic Sans MS;fontSize=16;fillColor=#f8cecc;strokeColor=#b85450;" vertex="1" parent="1">
          <mxGeometry x="665" y="520" width="210" height="50" as="geometry" />
        </mxCell>
        <mxCell id="UTCIlsExL89RcQO2asN3-20" value="" style="endArrow=classic;html=1;fontFamily=Comic Sans MS;fontSize=18;startSize=10;endSize=10;sourcePerimeterSpacing=20;targetPerimeterSpacing=20;strokeWidth=0.5;exitX=0.5;exitY=1;exitDx=0;exitDy=0;entryX=0.5;entryY=0;entryDx=0;entryDy=0;" edge="1" parent="1" source="UTCIlsExL89RcQO2asN3-15" target="UTCIlsExL89RcQO2asN3-17">
          <mxGeometry width="50" height="50" relative="1" as="geometry">
            <mxPoint x="750" y="360" as="sourcePoint" />
            <mxPoint x="800" y="310" as="targetPoint" />
          </mxGeometry>
        </mxCell>
        <mxCell id="UTCIlsExL89RcQO2asN3-24" value="" style="endArrow=classic;html=1;fontFamily=Comic Sans MS;fontSize=18;startSize=10;endSize=10;sourcePerimeterSpacing=20;targetPerimeterSpacing=20;strokeWidth=0.5;exitX=0.5;exitY=1;exitDx=0;exitDy=0;entryX=0.5;entryY=0;entryDx=0;entryDy=0;" edge="1" parent="1">
          <mxGeometry width="50" height="50" relative="1" as="geometry">
            <mxPoint x="769.5" y="390" as="sourcePoint" />
            <mxPoint x="769.5" y="430" as="targetPoint" />
          </mxGeometry>
        </mxCell>
        <mxCell id="UTCIlsExL89RcQO2asN3-27" value="" style="endArrow=classic;html=1;fontFamily=Comic Sans MS;fontSize=18;startSize=10;endSize=10;sourcePerimeterSpacing=20;targetPerimeterSpacing=20;strokeWidth=0.5;exitX=0.5;exitY=1;exitDx=0;exitDy=0;entryX=0.5;entryY=0;entryDx=0;entryDy=0;" edge="1" parent="1" source="UTCIlsExL89RcQO2asN3-18" target="UTCIlsExL89RcQO2asN3-19">
          <mxGeometry width="50" height="50" relative="1" as="geometry">
            <mxPoint x="779.5" y="400" as="sourcePoint" />
            <mxPoint x="779.5" y="440" as="targetPoint" />
          </mxGeometry>
        </mxCell>
        <mxCell id="UTCIlsExL89RcQO2asN3-30" value="" style="shape=flexArrow;endArrow=classic;html=1;fontFamily=Comic Sans MS;fontSize=18;startSize=10;endSize=10;sourcePerimeterSpacing=20;targetPerimeterSpacing=20;strokeWidth=0.5;width=28;fillColor=#bac8d3;strokeColor=#23445d;" edge="1" parent="1">
          <mxGeometry width="50" height="50" relative="1" as="geometry">
            <mxPoint x="560" y="544.5" as="sourcePoint" />
            <mxPoint x="470" y="544.5" as="targetPoint" />
          </mxGeometry>
        </mxCell>
        <mxCell id="UTCIlsExL89RcQO2asN3-31" value="First" style="text;html=1;strokeColor=none;fillColor=none;align=center;verticalAlign=middle;whiteSpace=wrap;rounded=0;sketch=1;fontFamily=Comic Sans MS;fontSize=20;" vertex="1" parent="1">
          <mxGeometry x="285" y="130" width="90" height="50" as="geometry" />
        </mxCell>
        <mxCell id="UTCIlsExL89RcQO2asN3-33" value="" style="rounded=1;whiteSpace=wrap;html=1;sketch=1;dashed=1;fillColor=#f5f5f5;strokeColor=#666666;fontColor=#333333;" vertex="1" parent="1">
          <mxGeometry x="160" y="750" width="340" height="430" as="geometry" />
        </mxCell>
        <mxCell id="UTCIlsExL89RcQO2asN3-34" value="&lt;div class=&quot;lake-content&quot; style=&quot;font-size: 18px&quot;&gt;&lt;span class=&quot;ne-text&quot; style=&quot;font-size: 18px&quot;&gt;拆分阶段&lt;/span&gt;&lt;/div&gt;" style="text;whiteSpace=wrap;html=1;fontFamily=Comic Sans MS;fontSize=18;" vertex="1" parent="1">
          <mxGeometry x="292.5" y="750" width="75" height="30" as="geometry" />
        </mxCell>
        <mxCell id="UTCIlsExL89RcQO2asN3-35" value="使用提炼函数" style="rounded=1;whiteSpace=wrap;html=1;sketch=1;fontFamily=Comic Sans MS;fontSize=16;fillColor=#f8cecc;strokeColor=#b85450;" vertex="1" parent="1">
          <mxGeometry x="225" y="800" width="210" height="50" as="geometry" />
        </mxCell>
        <mxCell id="UTCIlsExL89RcQO2asN3-36" value="创建中转对象" style="rounded=1;whiteSpace=wrap;html=1;sketch=1;fontFamily=Comic Sans MS;fontSize=16;fillColor=#f8cecc;strokeColor=#b85450;" vertex="1" parent="1">
          <mxGeometry x="225" y="890" width="210" height="50" as="geometry" />
        </mxCell>
        <mxCell id="UTCIlsExL89RcQO2asN3-37" value="" style="edgeStyle=orthogonalEdgeStyle;rounded=0;sketch=1;orthogonalLoop=1;jettySize=auto;html=1;fontFamily=Comic Sans MS;fontSize=18;startSize=10;endSize=10;sourcePerimeterSpacing=20;targetPerimeterSpacing=20;strokeWidth=0.5;" edge="1" source="UTCIlsExL89RcQO2asN3-38" target="UTCIlsExL89RcQO2asN3-36" parent="1">
          <mxGeometry relative="1" as="geometry" />
        </mxCell>
        <mxCell id="UTCIlsExL89RcQO2asN3-38" value="搬移字段" style="rounded=1;whiteSpace=wrap;html=1;sketch=1;fontFamily=Comic Sans MS;fontSize=16;fillColor=#f8cecc;strokeColor=#b85450;" vertex="1" parent="1">
          <mxGeometry x="225" y="980" width="210" height="50" as="geometry" />
        </mxCell>
        <mxCell id="UTCIlsExL89RcQO2asN3-39" value="搬移函数" style="rounded=1;whiteSpace=wrap;html=1;sketch=1;fontFamily=Comic Sans MS;fontSize=16;fillColor=#d5e8d4;strokeColor=#82b366;" vertex="1" parent="1">
          <mxGeometry x="225" y="1070" width="210" height="50" as="geometry" />
        </mxCell>
        <mxCell id="UTCIlsExL89RcQO2asN3-40" value="" style="endArrow=classic;html=1;fontFamily=Comic Sans MS;fontSize=18;startSize=10;endSize=10;sourcePerimeterSpacing=20;targetPerimeterSpacing=20;strokeWidth=0.5;exitX=0.5;exitY=1;exitDx=0;exitDy=0;entryX=0.5;entryY=0;entryDx=0;entryDy=0;" edge="1" source="UTCIlsExL89RcQO2asN3-35" target="UTCIlsExL89RcQO2asN3-36" parent="1">
          <mxGeometry width="50" height="50" relative="1" as="geometry">
            <mxPoint x="310" y="910" as="sourcePoint" />
            <mxPoint x="360" y="860" as="targetPoint" />
          </mxGeometry>
        </mxCell>
        <mxCell id="UTCIlsExL89RcQO2asN3-41" value="" style="endArrow=classic;html=1;fontFamily=Comic Sans MS;fontSize=18;startSize=10;endSize=10;sourcePerimeterSpacing=20;targetPerimeterSpacing=20;strokeWidth=0.5;exitX=0.5;exitY=1;exitDx=0;exitDy=0;entryX=0.5;entryY=0;entryDx=0;entryDy=0;" edge="1" parent="1">
          <mxGeometry width="50" height="50" relative="1" as="geometry">
            <mxPoint x="329.5" y="940" as="sourcePoint" />
            <mxPoint x="329.5" y="980" as="targetPoint" />
          </mxGeometry>
        </mxCell>
        <mxCell id="UTCIlsExL89RcQO2asN3-42" value="" style="endArrow=classic;html=1;fontFamily=Comic Sans MS;fontSize=18;startSize=10;endSize=10;sourcePerimeterSpacing=20;targetPerimeterSpacing=20;strokeWidth=0.5;exitX=0.5;exitY=1;exitDx=0;exitDy=0;entryX=0.5;entryY=0;entryDx=0;entryDy=0;" edge="1" source="UTCIlsExL89RcQO2asN3-38" target="UTCIlsExL89RcQO2asN3-39" parent="1">
          <mxGeometry width="50" height="50" relative="1" as="geometry">
            <mxPoint x="339.5" y="950" as="sourcePoint" />
            <mxPoint x="339.5" y="990" as="targetPoint" />
          </mxGeometry>
        </mxCell>
        <mxCell id="UTCIlsExL89RcQO2asN3-53" value="Second" style="text;html=1;strokeColor=none;fillColor=none;align=center;verticalAlign=middle;whiteSpace=wrap;rounded=0;sketch=1;fontFamily=Comic Sans MS;fontSize=20;" vertex="1" parent="1">
          <mxGeometry x="285" y="690" width="90" height="50" as="geometry" />
        </mxCell>
        <mxCell id="UTCIlsExL89RcQO2asN3-54" value="" style="rounded=1;whiteSpace=wrap;html=1;sketch=1;dashed=1;fillColor=#f5f5f5;strokeColor=#666666;fontColor=#333333;" vertex="1" parent="1">
          <mxGeometry x="600" y="750" width="340" height="310" as="geometry" />
        </mxCell>
        <mxCell id="UTCIlsExL89RcQO2asN3-55" value="&lt;div class=&quot;lake-content&quot; style=&quot;font-size: 18px&quot;&gt;&lt;span class=&quot;ne-text&quot; style=&quot;font-size: 18px&quot;&gt;使用多态&lt;/span&gt;&lt;/div&gt;" style="text;whiteSpace=wrap;html=1;fontFamily=Comic Sans MS;fontSize=18;" vertex="1" parent="1">
          <mxGeometry x="732.5" y="750" width="75" height="30" as="geometry" />
        </mxCell>
        <mxCell id="UTCIlsExL89RcQO2asN3-56" value="以工厂函数取代构造函数" style="rounded=1;whiteSpace=wrap;html=1;sketch=1;fontFamily=Comic Sans MS;fontSize=16;fillColor=#f8cecc;strokeColor=#b85450;" vertex="1" parent="1">
          <mxGeometry x="665" y="800" width="210" height="50" as="geometry" />
        </mxCell>
        <mxCell id="UTCIlsExL89RcQO2asN3-57" value="以子类取代类型码" style="rounded=1;whiteSpace=wrap;html=1;sketch=1;fontFamily=Comic Sans MS;fontSize=16;fillColor=#f8cecc;strokeColor=#b85450;" vertex="1" parent="1">
          <mxGeometry x="665" y="890" width="210" height="50" as="geometry" />
        </mxCell>
        <mxCell id="UTCIlsExL89RcQO2asN3-60" value="搬移函数" style="rounded=1;whiteSpace=wrap;html=1;sketch=1;fontFamily=Comic Sans MS;fontSize=16;fillColor=#d5e8d4;strokeColor=#82b366;" vertex="1" parent="1">
          <mxGeometry x="665" y="980" width="210" height="50" as="geometry" />
        </mxCell>
        <mxCell id="UTCIlsExL89RcQO2asN3-61" value="" style="endArrow=classic;html=1;fontFamily=Comic Sans MS;fontSize=18;startSize=10;endSize=10;sourcePerimeterSpacing=20;targetPerimeterSpacing=20;strokeWidth=0.5;exitX=0.5;exitY=1;exitDx=0;exitDy=0;entryX=0.5;entryY=0;entryDx=0;entryDy=0;" edge="1" source="UTCIlsExL89RcQO2asN3-56" target="UTCIlsExL89RcQO2asN3-57" parent="1">
          <mxGeometry width="50" height="50" relative="1" as="geometry">
            <mxPoint x="750" y="910" as="sourcePoint" />
            <mxPoint x="800" y="860" as="targetPoint" />
          </mxGeometry>
        </mxCell>
        <mxCell id="UTCIlsExL89RcQO2asN3-63" value="" style="endArrow=classic;html=1;fontFamily=Comic Sans MS;fontSize=18;startSize=10;endSize=10;sourcePerimeterSpacing=20;targetPerimeterSpacing=20;strokeWidth=0.5;exitX=0.5;exitY=1;exitDx=0;exitDy=0;entryX=0.5;entryY=0;entryDx=0;entryDy=0;" edge="1" source="UTCIlsExL89RcQO2asN3-57" target="UTCIlsExL89RcQO2asN3-60" parent="1">
          <mxGeometry width="50" height="50" relative="1" as="geometry">
            <mxPoint x="770" y="1030" as="sourcePoint" />
            <mxPoint x="779.5" y="990" as="targetPoint" />
          </mxGeometry>
        </mxCell>
        <mxCell id="UTCIlsExL89RcQO2asN3-64" value="Third" style="text;html=1;strokeColor=none;fillColor=none;align=center;verticalAlign=middle;whiteSpace=wrap;rounded=0;sketch=1;fontFamily=Comic Sans MS;fontSize=20;" vertex="1" parent="1">
          <mxGeometry x="725" y="690" width="90" height="50" as="geometry" />
        </mxCell>
        <mxCell id="UTCIlsExL89RcQO2asN3-66" value="" style="rounded=1;whiteSpace=wrap;html=1;sketch=1;dashed=1;fillColor=#f5f5f5;strokeColor=#666666;fontColor=#333333;" vertex="1" parent="1">
          <mxGeometry x="1030" y="750" width="340" height="240" as="geometry" />
        </mxCell>
        <mxCell id="UTCIlsExL89RcQO2asN3-68" value="Summary" style="text;html=1;strokeColor=none;fillColor=none;align=center;verticalAlign=middle;whiteSpace=wrap;rounded=0;sketch=1;fontFamily=Comic Sans MS;fontSize=20;" vertex="1" parent="1">
          <mxGeometry x="1155" y="690" width="90" height="50" as="geometry" />
        </mxCell>
        <mxCell id="UTCIlsExL89RcQO2asN3-69" value="以工厂函数取代构造函数" style="rounded=1;whiteSpace=wrap;html=1;sketch=1;fontFamily=Comic Sans MS;fontSize=16;fillColor=#f8cecc;strokeColor=#b85450;" vertex="1" parent="1">
          <mxGeometry x="1095" y="790" width="210" height="50" as="geometry" />
        </mxCell>
        <mxCell id="UTCIlsExL89RcQO2asN3-70" value="以工厂函数取代构造函数" style="rounded=1;whiteSpace=wrap;html=1;sketch=1;fontFamily=Comic Sans MS;fontSize=16;fillColor=#f8cecc;strokeColor=#b85450;" vertex="1" parent="1">
          <mxGeometry x="1095" y="890" width="210" height="50" as="geometry" />
        </mxCell>
      </root>
    </mxGraphModel>
  </diagram>
</mxfile>
